<svg width="39" height="38" viewBox="0 0 39 38" fill="none" xmlns="http://www.w3.org/2000/svg">
<path fill-rule="evenodd" clip-rule="evenodd" d="M19.2503 35.3933C23.6308 35.3933 27.832 33.6531 30.9295 30.5556C34.027 27.4581 35.7672 23.2569 35.7672 18.8764C35.7672 14.4959 34.027 10.2947 30.9295 7.19722C27.832 4.09971 23.6308 2.35955 19.2503 2.35955C14.8698 2.35955 10.6686 4.09971 7.57113 7.19722C4.47362 10.2947 2.73345 14.4959 2.73345 18.8764C2.73345 23.2569 4.47362 27.4581 7.57113 30.5556C10.6686 33.6531 14.8698 35.3933 19.2503 35.3933ZM19.2503 37.7528C24.2566 37.7528 29.0579 35.764 32.5979 32.224C36.138 28.684 38.1267 23.8827 38.1267 18.8764C38.1267 13.8701 36.138 9.06878 32.5979 5.52877C29.0579 1.98876 24.2566 0 19.2503 0C14.244 0 9.44268 1.98876 5.90267 5.52877C2.36266 9.06878 0.373901 13.8701 0.373901 18.8764C0.373901 23.8827 2.36266 28.684 5.90267 32.224C9.44268 35.764 14.244 37.7528 19.2503 37.7528Z" fill="#262626"/>
<path fill-rule="evenodd" clip-rule="evenodd" d="M18.4151 26.7902C18.3052 26.6807 18.218 26.5505 18.1586 26.4071C18.0991 26.2638 18.0685 26.1101 18.0685 25.955C18.0685 25.7998 18.0991 25.6461 18.1586 25.5028C18.218 25.3595 18.3052 25.2293 18.4151 25.1197L24.6608 18.8763L18.4151 12.6329C18.3054 12.5233 18.2184 12.393 18.159 12.2497C18.0997 12.1064 18.0691 11.9528 18.0691 11.7977C18.0691 11.6425 18.0997 11.4889 18.159 11.3456C18.2184 11.2023 18.3054 11.0721 18.4151 10.9624C18.5248 10.8527 18.655 10.7657 18.7983 10.7063C18.9416 10.6469 19.0952 10.6164 19.2504 10.6164C19.4055 10.6164 19.5591 10.6469 19.7024 10.7063C19.8457 10.7657 19.976 10.8527 20.0856 10.9624L27.1643 18.041C27.2742 18.1506 27.3613 18.2808 27.4208 18.4241C27.4803 18.5675 27.5109 18.7211 27.5109 18.8763C27.5109 19.0315 27.4803 19.1851 27.4208 19.3285C27.3613 19.4718 27.2742 19.602 27.1643 19.7116L20.0856 26.7902C19.9761 26.9001 19.8459 26.9873 19.7025 27.0468C19.5592 27.1062 19.4055 27.1368 19.2504 27.1368C19.0952 27.1368 18.9415 27.1062 18.7982 27.0468C18.6549 26.9873 18.5247 26.9001 18.4151 26.7902Z" fill="#262626"/>
<path fill-rule="evenodd" clip-rule="evenodd" d="M10.9919 18.8763C10.9919 18.5634 11.1162 18.2633 11.3375 18.0421C11.5587 17.8208 11.8588 17.6965 12.1717 17.6965H23.9695C24.2824 17.6965 24.5824 17.8208 24.8037 18.0421C25.025 18.2633 25.1492 18.5634 25.1492 18.8763C25.1492 19.1892 25.025 19.4893 24.8037 19.7105C24.5824 19.9318 24.2824 20.0561 23.9695 20.0561H12.1717C11.8588 20.0561 11.5587 19.9318 11.3375 19.7105C11.1162 19.4893 10.9919 19.1892 10.9919 18.8763Z" fill="#262626"/>
</svg>
