<svg width="30" height="30" viewBox="0 0 30 30" fill="none" xmlns="http://www.w3.org/2000/svg">
<path fill-rule="evenodd" clip-rule="evenodd" d="M15 28.125C18.481 28.125 21.8194 26.7422 24.2808 24.2808C26.7422 21.8194 28.125 18.481 28.125 15C28.125 11.519 26.7422 8.18064 24.2808 5.71922C21.8194 3.25781 18.481 1.875 15 1.875C11.519 1.875 8.18064 3.25781 5.71922 5.71922C3.25781 8.18064 1.875 11.519 1.875 15C1.875 18.481 3.25781 21.8194 5.71922 24.2808C8.18064 26.7422 11.519 28.125 15 28.125ZM15 30C18.9782 30 22.7936 28.4196 25.6066 25.6066C28.4196 22.7936 30 18.9782 30 15C30 11.0218 28.4196 7.20644 25.6066 4.3934C22.7936 1.58035 18.9782 0 15 0C11.0218 0 7.20644 1.58035 4.3934 4.3934C1.58035 7.20644 0 11.0218 0 15C0 18.9782 1.58035 22.7936 4.3934 25.6066C7.20644 28.4196 11.0218 30 15 30Z" fill="#0F73ED"/>
<path fill-rule="evenodd" clip-rule="evenodd" d="M14.3362 21.2887C14.2489 21.2016 14.1796 21.0982 14.1324 20.9843C14.0851 20.8704 14.0608 20.7483 14.0608 20.625C14.0608 20.5016 14.0851 20.3795 14.1324 20.2657C14.1796 20.1518 14.2489 20.0483 14.3362 19.9612L19.2993 15L14.3362 10.0387C14.2491 9.95155 14.1799 9.84807 14.1327 9.73418C14.0856 9.6203 14.0613 9.49823 14.0613 9.37496C14.0613 9.25169 14.0856 9.12963 14.1327 9.01574C14.1799 8.90186 14.2491 8.79838 14.3362 8.71121C14.4234 8.62405 14.5269 8.55491 14.6407 8.50773C14.7546 8.46056 14.8767 8.43628 15 8.43628C15.1232 8.43628 15.2453 8.46056 15.3592 8.50773C15.4731 8.55491 15.5766 8.62405 15.6637 8.71121L21.2887 14.3362C21.376 14.4233 21.4453 14.5268 21.4926 14.6407C21.5398 14.7545 21.5641 14.8767 21.5641 15C21.5641 15.1233 21.5398 15.2454 21.4926 15.3593C21.4453 15.4732 21.376 15.5766 21.2887 15.6637L15.6637 21.2887C15.5766 21.376 15.4732 21.4453 15.3593 21.4925C15.2454 21.5398 15.1233 21.5641 15 21.5641C14.8767 21.5641 14.7546 21.5398 14.6407 21.4925C14.5268 21.4453 14.4233 21.376 14.3362 21.2887Z" fill="#0F73ED"/>
<path fill-rule="evenodd" clip-rule="evenodd" d="M8.4375 15C8.4375 14.7514 8.53627 14.5129 8.71209 14.3371C8.8879 14.1613 9.12636 14.0625 9.375 14.0625H18.75C18.9986 14.0625 19.2371 14.1613 19.4129 14.3371C19.5887 14.5129 19.6875 14.7514 19.6875 15C19.6875 15.2486 19.5887 15.4871 19.4129 15.6629C19.2371 15.8387 18.9986 15.9375 18.75 15.9375H9.375C9.12636 15.9375 8.8879 15.8387 8.71209 15.6629C8.53627 15.4871 8.4375 15.2486 8.4375 15Z" fill="#0F73ED"/>
</svg>
