<svg width="113" height="38" viewBox="0 0 113 38" fill="none" xmlns="http://www.w3.org/2000/svg">
<g clip-path="url(#clip0_4555_159)">
<path d="M92.3195 37.8104C92.6977 37.8104 93.0394 37.7512 93.3446 37.6329C93.6498 37.5145 93.9118 37.3438 94.1306 37.1209C94.3494 36.8979 94.5169 36.6309 94.6331 36.3199C94.7492 36.0088 94.8073 35.6606 94.8073 35.2752V31.7821H93.5999V35.2174C93.5999 35.5147 93.5472 35.7735 93.4418 35.9937C93.3365 36.2139 93.1893 36.3832 93.0002 36.5015C92.8111 36.6199 92.5869 36.6791 92.3276 36.6791C92.0683 36.6791 91.8427 36.6199 91.651 36.5015C91.4592 36.3832 91.3119 36.2139 91.2093 35.9937C91.1067 35.7735 91.0553 35.5147 91.0553 35.2174V31.7821H89.8479V35.2752C89.8479 35.6606 89.906 36.0088 90.0221 36.3199C90.1383 36.6309 90.3044 36.8979 90.5205 37.1209C90.7366 37.3438 90.9959 37.5145 91.2984 37.6329C91.601 37.7512 91.9413 37.8104 92.3195 37.8104ZM96.8413 37.6452V35.5064C96.8413 35.1486 96.925 34.872 97.0925 34.6765C97.26 34.4811 97.5004 34.3834 97.8137 34.3834C97.8786 34.3834 97.942 34.3875 98.0042 34.3958C98.0663 34.404 98.1271 34.4192 98.1865 34.4412L98.308 33.3016C98.2486 33.2796 98.1811 33.2617 98.1055 33.2479C98.0298 33.2342 97.9542 33.2273 97.8786 33.2273C97.63 33.2273 97.414 33.2892 97.2303 33.4131C97.0466 33.5369 96.9007 33.7145 96.7927 33.9457L96.7522 33.2851H95.7068V37.6452H96.8413ZM101.323 37.7691C101.609 37.7691 101.876 37.7099 102.125 37.5916C102.373 37.4732 102.589 37.308 102.773 37.0961C102.957 36.8841 103.1 36.6378 103.203 36.357C103.305 36.0762 103.357 35.7707 103.357 35.4404C103.357 35.1156 103.307 34.8155 103.207 34.5403C103.107 34.265 102.968 34.0242 102.789 33.8177C102.611 33.6113 102.403 33.4502 102.165 33.3346C101.928 33.219 101.668 33.1612 101.387 33.1612C101.112 33.1612 100.859 33.2218 100.63 33.3429C100.4 33.464 100.21 33.6292 100.058 33.8384V31.4849H98.9239V37.6452H99.9693L100.002 37.0754C100.148 37.2957 100.334 37.4663 100.561 37.5874C100.788 37.7086 101.042 37.7691 101.323 37.7691ZM101.12 36.7286C100.915 36.7286 100.731 36.6736 100.569 36.5635C100.407 36.4534 100.279 36.3033 100.184 36.1134C100.089 35.9235 100.042 35.7074 100.042 35.4652C100.042 35.2229 100.089 35.0068 100.184 34.8169C100.279 34.627 100.407 34.477 100.569 34.3669C100.731 34.2568 100.915 34.2017 101.12 34.2017C101.325 34.2017 101.509 34.2568 101.671 34.3669C101.833 34.477 101.961 34.627 102.056 34.8169C102.15 35.0068 102.198 35.2229 102.198 35.4652C102.198 35.7074 102.15 35.9235 102.056 36.1134C101.961 36.3033 101.833 36.4534 101.671 36.5635C101.509 36.6736 101.325 36.7286 101.12 36.7286ZM105.423 37.7691C105.72 37.7691 105.977 37.7099 106.193 37.5916C106.409 37.4732 106.574 37.3204 106.687 37.1333L106.72 37.6452H107.733V35.0027C107.733 34.7275 107.688 34.4783 107.599 34.2554C107.51 34.0324 107.383 33.8384 107.218 33.6732C107.053 33.508 106.857 33.3814 106.63 33.2933C106.404 33.2053 106.152 33.1612 105.877 33.1612C105.58 33.1612 105.304 33.2135 105.05 33.3181C104.796 33.4227 104.582 33.57 104.406 33.7599C104.23 33.9498 104.113 34.1714 104.053 34.4247L105.066 34.6311C105.126 34.466 105.229 34.338 105.374 34.2471C105.52 34.1563 105.682 34.1109 105.861 34.1109C106.098 34.1109 106.286 34.1879 106.424 34.3421C106.562 34.4962 106.63 34.6972 106.63 34.9449V35.2009C106.479 35.1403 106.324 35.0936 106.164 35.0605C106.005 35.0275 105.836 35.011 105.658 35.011C105.307 35.011 104.999 35.0702 104.734 35.1885C104.469 35.3069 104.264 35.4707 104.118 35.6799C103.972 35.8891 103.9 36.1313 103.9 36.4066C103.9 36.6047 103.937 36.7864 104.013 36.9516C104.089 37.1167 104.195 37.2612 104.333 37.3851C104.471 37.509 104.632 37.604 104.815 37.67C104.999 37.7361 105.201 37.7691 105.423 37.7691ZM105.699 36.8773C105.493 36.8773 105.328 36.8277 105.204 36.7286C105.08 36.6295 105.018 36.5029 105.018 36.3488C105.018 36.1781 105.092 36.0418 105.241 35.94C105.389 35.8381 105.59 35.7872 105.844 35.7872C105.979 35.7872 106.115 35.8024 106.25 35.8326C106.385 35.8629 106.512 35.9028 106.63 35.9524V35.9937C106.63 36.1588 106.59 36.3088 106.509 36.4437C106.428 36.5786 106.317 36.6846 106.177 36.7616C106.036 36.8387 105.877 36.8773 105.699 36.8773ZM109.775 37.6452V35.1431C109.775 34.9614 109.812 34.799 109.888 34.6559C109.964 34.5128 110.066 34.4013 110.196 34.3214C110.326 34.2416 110.477 34.2017 110.65 34.2017C110.888 34.2017 111.074 34.2884 111.209 34.4618C111.344 34.6352 111.412 34.8733 111.412 35.1761V37.6452H112.546V35.0275C112.546 34.6476 112.481 34.3173 112.352 34.0365C112.222 33.7558 112.04 33.5397 111.805 33.3883C111.57 33.2369 111.295 33.1612 110.982 33.1612C110.701 33.1612 110.451 33.2231 110.232 33.347C110.014 33.4709 109.842 33.6374 109.718 33.8466L109.685 33.2851H108.64V37.6452H109.775Z" fill="#161616"/>
<path d="M47.7144 14.1438C47.6863 16.1399 46.1052 17.7511 44.1464 17.7797H39.9851V10.5078H44.1551C46.1223 10.5127 47.7144 12.1391 47.7144 14.1438ZM44.1551 8.00086H38.7464C38.0854 8.01041 37.5519 8.55411 37.5425 9.22766V27.3719C37.5425 28.0593 38.0893 28.6165 38.7638 28.6165C39.4383 28.6165 39.9851 28.0593 39.9851 27.3719V20.26L44.1551 20.2067C47.3738 20.0814 49.9197 17.3861 49.9197 14.1038C49.9197 10.8214 47.3738 8.12606 44.1551 8.00086ZM61.0443 21.229C61.1938 22.9512 60.3767 24.6119 58.933 25.52C57.4893 26.4281 55.6662 26.4281 54.2225 25.52C52.7788 24.6119 51.9617 22.9512 52.1112 21.229C51.9617 19.5068 52.7788 17.8461 54.2225 16.938C55.6662 16.0299 57.4893 16.0299 58.933 16.938C60.3767 17.8461 61.1938 19.5068 61.0443 21.229ZM62.2569 13.8591C61.9308 13.8543 61.6168 13.9853 61.3879 14.222C61.1589 14.4587 61.0348 14.7805 61.0443 15.1128V15.655C59.8208 14.5226 58.2306 13.8896 56.5778 13.8771C52.692 13.9838 49.6204 17.2687 49.7034 21.229C49.6106 25.1977 52.6836 28.4961 56.5778 28.6076C58.231 28.5976 59.8222 27.9642 61.0443 26.8296V27.3897C61.0055 27.8545 61.227 28.302 61.6168 28.5466C62.0067 28.7912 62.4985 28.7912 62.8883 28.5466C63.2782 28.302 63.4996 27.8545 63.4608 27.3897V15.1128C63.4632 14.7867 63.3371 14.4732 63.1108 14.2426C62.8845 14.0121 62.5769 13.8836 62.2569 13.886M77.2182 14.1615L77.0786 14.0549C76.9372 13.979 76.788 13.9193 76.6337 13.8771H76.3371C76.2707 13.8651 76.2028 13.8651 76.1365 13.8771H76.0318C75.5488 14.0454 75.221 14.5038 75.2117 15.0239V22.4113C75.2768 23.7516 74.6122 25.0195 73.4828 25.7095C72.3534 26.3995 70.9428 26.3995 69.8134 25.7095C68.684 25.0195 68.0193 23.7516 68.0844 22.4113V15.0594C68.031 14.4199 67.506 13.9284 66.8762 13.9284C66.2463 13.9284 65.7213 14.4199 65.6679 15.0594V22.4558C65.6513 24.762 66.9183 26.8787 68.9381 27.9192C70.9579 28.9596 73.3818 28.7441 75.1943 27.363C75.045 28.8499 74.1889 30.1673 72.9038 30.8878C71.6188 31.6082 70.0685 31.6398 68.7561 30.9723H68.6689C68.0764 30.7727 67.432 31.0638 67.1794 31.6453C66.9268 32.2268 67.1485 32.9087 67.6918 33.2214C68.6257 33.6689 69.6435 33.9054 70.6754 33.9148C72.5031 33.9338 74.263 33.2102 75.566 31.904C76.8691 30.5979 77.608 28.8166 77.6195 26.9541V15.0594C77.6166 14.8726 77.5687 14.6895 77.4799 14.526C77.4172 14.3858 77.3248 14.2613 77.2095 14.1615M89.3879 15.1128C89.3903 14.7851 89.263 14.4703 89.0348 14.2394C88.8066 14.0086 88.4968 13.8812 88.1753 13.8858C86.2388 13.9222 84.4164 14.8264 83.194 16.3573V15.1128C83.1406 14.4732 82.6156 13.9818 81.9857 13.9818C81.3559 13.9818 80.8309 14.4732 80.7775 15.1128V27.3719C80.7387 27.8368 80.9601 28.2843 81.35 28.5289C81.7398 28.7735 82.2317 28.7735 82.6215 28.5289C83.0114 28.2843 83.2328 27.8368 83.194 27.3719V21.4157V21.3623C83.557 20.2877 84.0712 19.2726 84.7206 18.3487C85.468 17.1446 86.7518 16.3957 88.1491 16.3484C88.8251 16.3534 89.3783 15.8016 89.3879 15.1128ZM99.9349 21.229C100.063 22.9399 99.2405 24.58 97.8042 25.4756C96.3678 26.3711 94.5602 26.3711 93.1238 25.4756C91.6874 24.58 90.8645 22.9399 90.993 21.229C90.8645 19.5181 91.6874 17.878 93.1238 16.9824C94.5602 16.0869 96.3678 16.0869 97.8042 16.9824C99.2405 17.878 100.063 19.5181 99.9349 21.229ZM101.174 13.8593C100.842 13.8441 100.52 13.971 100.285 14.2092C100.049 14.4473 99.9224 14.775 99.9349 15.1128V15.655C98.707 14.5241 97.1147 13.8915 95.4596 13.8771C91.569 13.9885 88.4974 17.2815 88.5853 21.2468C88.4925 25.2155 91.5655 28.5139 95.4596 28.6254C97.1154 28.6151 98.7092 27.9819 99.9349 26.8474V27.4075C99.9349 28.085 100.474 28.6343 101.139 28.6343C101.804 28.6343 102.343 28.085 102.343 27.4075V15.1128C102.352 14.7882 102.234 14.4733 102.014 14.2379C101.795 14.0026 101.492 13.8663 101.174 13.8593ZM106.103 9.41435C105.432 9.4241 104.894 9.98388 104.899 10.6678V11.3079C104.86 11.776 105.083 12.2266 105.475 12.4729C105.868 12.7191 106.363 12.7191 106.756 12.4729C107.149 12.2266 107.372 11.776 107.333 11.3079V10.6678C107.323 9.98393 106.774 9.43606 106.103 9.44102M106.103 13.8591C105.777 13.8542 105.464 13.9855 105.236 14.2225C105.009 14.4595 104.887 14.7814 104.899 15.1128V27.3719C104.952 28.0162 105.481 28.5114 106.116 28.5114C106.75 28.5114 107.279 28.0162 107.333 27.3719V15.1128C107.338 14.7812 107.209 14.4621 106.976 14.2301C106.744 13.9981 106.428 13.8737 106.103 13.886M111.311 8.00073C110.65 8.01041 110.116 8.55411 110.107 9.22766V27.3719C110.107 28.0593 110.654 28.6165 111.328 28.6165C112.003 28.6165 112.549 28.0593 112.549 27.3719V9.24544C112.55 8.91225 112.418 8.59296 112.186 8.35904C111.953 8.12512 111.638 7.9961 111.311 8.00073Z" fill="#C92135"/>
<path d="M18.5509 10.4367C18.6296 11.0564 18.6296 11.6839 18.5509 12.3036C18.0639 16.4554 14.3743 19.4243 10.2982 18.9443C9.26477 18.8191 8.32738 19.5714 8.20452 20.6245C8.08166 21.6777 8.81985 22.6329 9.85332 22.7581C12.8092 23.1212 15.7851 22.2692 18.123 20.3907C20.4609 18.5121 21.9679 15.7618 22.3109 12.7481C22.3646 12.2701 22.3879 11.789 22.3807 11.3079C21.4233 10.7179 20.324 10.4101 19.2052 10.4189C18.9864 10.4205 18.768 10.4353 18.5509 10.4634" fill="url(#paint0_linear_4555_159)"/>
<path d="M27.4928 8.94321C27.4101 8.80592 27.3136 8.6778 27.2049 8.56095C25.1092 6.41129 22.2572 5.20458 19.2837 5.20947H19.1703C12.9982 5.23881 8.00857 10.3433 8.00384 16.633C8.00005 16.6833 8.00005 16.7338 8.00384 16.7841V30.9368C8.00384 32.1397 7.04692 33.1148 5.86651 33.1148C4.6861 33.1148 3.72919 32.1397 3.72919 30.9368V23.656C3.72919 23.6115 3.72919 23.5582 3.72919 23.5137V11.6013C3.70438 7.38746 7.00149 3.93259 11.1357 3.84043H11.345C11.5719 3.84043 11.7987 3.84043 12.0255 3.84043C12.9448 3.96712 13.8326 4.26868 14.6426 4.72941C16.0817 4.14965 17.6141 3.84818 19.1615 3.84043H19.5454L19.4233 3.70708C17.6131 1.65978 15.131 0.357201 12.4442 0.0444494C12.1215 0 11.7463 0 11.3799 0H11.0746C5.43965 0.0664107 0.726035 4.37917 0.0564779 10.0811C0.0435136 10.1993 0.0435136 10.3186 0.0564779 10.4367C0.0564779 10.819 0.00413522 11.2101 0.00413522 11.6013V21.6113C-0.000649377 21.6586 -0.000649377 21.7062 0.00413522 21.7535V30.9368C-0.0790252 33.1405 1.02728 35.2141 2.88749 36.3412C4.74769 37.4682 7.06384 37.4682 8.92405 36.3412C10.7843 35.2141 11.8906 33.1405 11.8074 30.9368V16.8108C11.7831 12.5731 15.1168 9.10841 19.275 9.04989C22.1802 9.05698 24.8158 10.7864 26.0242 13.4788C27.2327 16.1711 26.793 19.334 24.8983 21.5783C23.0036 23.8227 20.0003 24.7381 17.2074 23.9227C16.2053 23.6354 15.1644 24.2305 14.8825 25.2517C14.6007 26.2729 15.1846 27.3336 16.1867 27.6208C21.001 29.0151 26.1386 26.9856 28.7729 22.6492C31.4073 18.3127 30.8989 12.7216 27.5276 8.9521" fill="url(#paint1_linear_4555_159)"/>
</g>
<defs>
<linearGradient id="paint0_linear_4555_159" x1="24.298" y1="16.2305" x2="12.085" y2="16.2305" gradientUnits="userSpaceOnUse">
<stop stop-color="#C92135"/>
<stop offset="1" stop-color="#C92135"/>
</linearGradient>
<linearGradient id="paint1_linear_4555_159" x1="15.6663" y1="1.78681" x2="15.6663" y2="28.2517" gradientUnits="userSpaceOnUse">
<stop stop-color="#C92135"/>
<stop offset="1" stop-color="#C92135"/>
</linearGradient>
<clipPath id="clip0_4555_159">
<rect width="113" height="38" fill="white" transform="translate(-0.000244141)"/>
</clipPath>
</defs>
</svg>
